# xmcd
#
# Track frame offsets:
# 150
# 15038
# 32474
# 43376
# 64329
# 86149
# 107009
# 118870
# 133741
# 151069
# 175875
#
# Disc length: 2532 seconds
#
#
# Revision: 0
# Processed by: cddbd v1.5.1PL0 Copyright (c) Steve Scherf et al.
# Submitted via: FreeRIP 2.941 
#
DISCID=8a09e20b
DTITLE=Visão Celular - Porto Seguro
DYEAR=2005
DGENRE=Gospel
TTITLE0=P seguro1
TTITLE1=P seguro2
TTITLE2=P seguro3
TTITLE3=P seguro4
TTITLE4=P seguro5
TTITLE5=P seguro6
TTITLE6=P seguro7
TTITLE7=P seguro8
TTITLE8=P seguro9
TTITLE9=P seguro10
TTITLE10=P seguro11
EXTD=
EXTT0=
EXTT1=
EXTT2=
EXTT3=
EXTT4=
EXTT5=
EXTT6=
EXTT7=
EXTT8=
EXTT9=
EXTT10=
PLAYORDER=
